<?xml version="1.0" encoding="utf-8"?>
<!-- Generator: Adobe Illustrator 16.0.0, SVG Export Plug-In . SVG Version: 6.00 Build 0)  -->
<!DOCTYPE svg PUBLIC "-//W3C//DTD SVG 1.1//EN" "http://www.w3.org/Graphics/SVG/1.1/DTD/svg11.dtd">
<svg version="1.1" id="Layer_2" xmlns="http://www.w3.org/2000/svg" xmlns:xlink="http://www.w3.org/1999/xlink" x="0px" y="0px"
	 width="1000px" height="406px" viewBox="0 296.5 1000 406" enable-background="new 0 296.5 1000 406" xml:space="preserve">
<g>
	<g>
		<path fill="#F4F7F9" d="M94.527,448.686H71.215c-8.387,0-14.641-5.828-13.504-12.794c1.137-6.965,9.097-12.793,17.484-12.65
			h68.373l5.117-32.978H80.313c-26.439,0-51.172,20.469-55.152,45.628c-3.98,25.16,14.356,45.629,40.796,45.771h23.312
			c8.529,0,14.499,6.112,13.362,13.646c-1.137,7.533-9.098,13.646-17.626,13.646H16.631l-5.26,32.836h68.373
			c26.439,0,51.173-20.896,55.295-46.624C139.161,469.581,120.824,448.686,94.527,448.686z"/>
		<path fill="#F4F7F9" d="M226.582,497.441c-1.137,7.392-12.509,15.778-26.866,15.778c-14.357,0-23.17-8.387-22.033-15.778
			l16.631-105.899h-32.409l-16.489,105.899c-4.265,26.865,17.91,48.756,49.183,48.756c31.272,0,60.27-21.891,64.534-48.756
			l16.347-104.193H243.07L226.582,497.441z"/>
		<path fill="#F4F7F9" d="M417.058,433.902c-1.99,12.366,0.853,23.596,6.965,32.267c-8.813,8.529-15.209,19.9-17.058,32.268
			c-4.264,26.865,13.931,48.756,40.228,48.756h68.373l5.117-32.978H452.31c-8.528,0-14.356-7.107-13.077-15.778
			c1.422-8.671,9.382-15.778,17.91-15.778h68.373l5.117-32.978H462.26c-8.528,0-14.356-7.107-13.077-15.778
			s9.382-15.779,17.91-15.779h68.373l5.117-32.978H472.21C446.197,385.146,421.322,407.036,417.058,433.902z"/>
		<path fill="#F4F7F9" d="M373.845,389.694h-84.577l-12.083,76.475l-3.27,21.038l-8.529,54.727h32.41l6.112-38.948
			c1.421-8.671,9.382-15.778,17.91-15.778h36.674c26.439,0,51.315-21.891,55.579-48.757
			C418.337,411.585,400.284,389.694,373.845,389.694z M363.753,454.229h-52.168l4.976-31.556h52.167
			c8.529,0,14.357,7.106,13.078,15.777S372.281,454.229,363.753,454.229z"/>
		<path fill="#F4F7F9" d="M675.622,434.044c4.265-26.866-13.931-48.756-40.228-48.756h-84.577l-12.651,81.023l-2.559,16.488
			l-10.661,66.383h32.41l8.244-50.604c1.422-8.671,9.382-15.777,17.91-15.777h1.99l24.022,64.534h36.816l-24.022-64.534
			C647.762,481.521,671.5,460.199,675.622,434.044z M577.825,418.266h52.168c8.528,0,14.356,7.107,13.077,15.778
			c-1.422,8.671-9.382,15.778-17.91,15.778h-52.168L577.825,418.266z"/>
	</g>
	<path fill="#D9291C" d="M954.797,503.127c0.711-0.71,1.564-1.563,2.275-2.274c18.621-20.042,31.271-46.34,35.678-73.916
		c4.407-27.576-0.142-53.873-12.509-73.916c-13.646-22.175-35.963-34.968-61.407-34.968h-11.371H805.26h-11.372
		c-25.444,0-51.741,12.651-72.353,34.826c-18.621,20.042-31.272,46.34-35.679,73.917c-4.406,27.576,0.143,53.873,12.509,73.916
		c0.427,0.853,0.995,1.563,1.563,2.416c-0.711,0.711-1.563,1.563-2.274,2.274c-18.621,20.043-31.271,46.34-35.679,73.916
		c-4.265,27.577,0.143,53.874,12.509,73.916c13.646,22.176,35.963,34.826,61.55,34.826l62.544-0.142l62.402,0.142
		c25.444,0,51.884-12.65,72.353-34.826c18.622-20.042,31.272-46.339,35.679-73.916c4.407-27.576-0.142-53.873-12.509-73.916
		C955.935,504.69,955.366,503.98,954.797,503.127z M871.215,622.246h-11.514v-0.143l-51.03,0.143l-51.03-0.143v0.143h-11.514
		c-12.367,0-23.313-18.337-19.475-42.786s20.469-42.786,32.836-42.786h11.372h102.203h11.372c12.366,0,23.312,18.337,19.474,42.786
		C900.213,603.909,883.439,622.246,871.215,622.246z M895.096,469.723h-11.514v-0.142l-51.03,0.142l-51.031-0.142v0.142h-11.514
		c-12.366,0-23.312-18.337-19.474-42.786s20.469-42.786,32.836-42.786h11.371h102.203h11.372c12.367,0,23.313,18.336,19.474,42.786
		C923.951,451.386,907.463,469.723,895.096,469.723z"/>
	<g>
		<g>
			<path fill="#D9291C" d="M62.118,580.881l-6.397,4.123c-1.848-2.133-3.553-3.554-5.259-4.407
				c-1.706-0.853-3.696-1.279-5.828-1.279c-4.69,0-8.529,1.849-11.514,5.687c-2.274,2.984-3.554,6.396-3.554,9.95
				s1.137,6.681,3.554,9.097c2.417,2.417,5.401,3.696,8.813,3.696c2.559,0,4.975-0.568,7.107-1.848s3.838-3.128,5.259-5.687H41.649
				l0.995-7.249h20.469c-0.284,6.681-2.417,12.082-6.254,15.92s-8.955,5.971-14.925,5.971c-6.539,0-11.798-2.274-15.494-6.823
				c-2.985-3.696-4.549-7.96-4.549-13.077c0-6.112,2.274-11.515,6.681-15.921c4.407-4.406,9.666-6.681,15.92-6.681
				c2.274,0,4.549,0.284,6.681,0.995c2.132,0.711,4.122,1.563,5.828,2.843C58.849,577.328,60.412,578.892,62.118,580.881z"/>
			<path fill="#D9291C" d="M74.911,573.348h7.107c4.406,0,7.392,0.427,9.239,1.137c2.274,0.995,3.838,2.274,4.975,3.838
				c1.137,1.706,1.706,3.696,1.706,5.971c0,2.843-0.853,5.259-2.559,7.249c-1.706,1.99-4.123,3.412-7.534,4.265l8.813,18.194h-7.818
				l-8.671-17.768h-0.568l-2.417,17.768H69.51L74.911,573.348z M80.313,589.552c4.123,0,6.823-0.426,8.103-1.279
				c1.279-0.853,1.848-2.132,1.848-3.695c0-0.995-0.285-1.706-0.711-2.416c-0.569-0.711-1.279-1.138-2.132-1.422
				c-0.995-0.284-2.843-0.427-5.686-0.427L80.313,589.552z"/>
			<path fill="#D9291C" d="M125.8,572.353c5.543,0,10.234,1.848,13.788,5.401s5.401,8.103,5.401,13.646
				c0,4.265-1.137,8.244-3.27,11.94c-2.132,3.695-4.975,6.681-8.528,8.671c-3.554,1.989-7.676,2.984-12.225,2.984
				c-5.828,0-10.377-1.705-13.789-5.117c-3.411-3.411-5.117-7.96-5.117-13.504c0-6.396,1.99-11.798,6.112-16.347
				C112.864,574.769,118.692,572.353,125.8,572.353z M125.515,579.46c-2.843,0-5.543,0.711-7.96,2.132
				c-2.417,1.422-4.265,3.412-5.828,6.112c-1.421,2.701-2.274,5.401-2.274,8.245c0,3.269,0.995,6.112,3.127,8.528
				c2.132,2.417,4.975,3.411,8.813,3.411c4.407,0,8.245-1.563,11.229-4.69c3.127-3.127,4.691-6.965,4.691-11.372
				c0-3.695-1.137-6.681-3.27-8.813C131.912,580.597,129.069,579.46,125.515,579.46z"/>
			<path fill="#D9291C" d="M189.197,578.607l-5.543,5.117c-1.137-1.422-2.701-2.417-4.407-3.128
				c-1.706-0.71-3.554-1.137-5.686-1.137c-2.843,0-5.543,0.711-8.102,2.132c-2.559,1.422-4.549,3.412-6.112,5.828
				c-1.421,2.417-2.132,4.976-2.132,7.676c0,3.696,1.279,6.681,3.838,9.098c2.559,2.416,5.828,3.696,9.808,3.696
				c4.265,0,7.96-1.28,11.087-3.696l4.549,5.97c-4.549,3.27-9.95,4.833-16.063,4.833c-4.265,0-7.96-0.853-10.945-2.416
				s-5.401-3.98-7.25-7.107c-1.848-3.127-2.701-6.539-2.701-10.234c0-3.98,1.137-7.676,3.27-11.229
				c2.132-3.554,4.975-6.396,8.671-8.529c3.696-2.132,7.676-3.127,11.94-3.127C179.531,572.353,184.791,574.343,189.197,578.607z"/>
			<path fill="#D9291C" d="M198.294,573.348h21.748l-0.995,7.249h-14.215l-1.137,8.387h14.215l-0.995,7.107h-14.357l-1.563,10.804
				h14.356l-0.853,7.106h-22.033L198.294,573.348z"/>
			<path fill="#D9291C" d="M228.571,573.348h7.107c4.407,0,7.392,0.427,9.24,1.137c2.274,0.995,3.838,2.274,4.975,3.838
				c1.137,1.706,1.706,3.696,1.706,5.971c0,2.843-0.853,5.259-2.559,7.249s-4.122,3.412-7.534,4.265l8.813,18.194h-7.818
				l-8.671-17.768h-0.569l-2.417,17.768h-7.676L228.571,573.348z M233.973,589.552c4.122,0,6.823-0.426,8.102-1.279
				c1.279-0.853,1.848-2.132,1.848-3.695c0-0.995-0.284-1.706-0.711-2.416c-0.568-0.711-1.279-1.138-2.132-1.422
				c-0.995-0.284-2.843-0.427-5.686-0.427L233.973,589.552z"/>
			<path fill="#D9291C" d="M255.295,573.348h7.676l6.254,16.204l11.514-16.204h8.671l-17.342,24.307l-2.132,16.205h-7.676
				l2.274-16.205L255.295,573.348z"/>
			<path fill="#D9291C" d="M307.889,573.348h6.966l2.416,26.297l12.367-26.297h5.686l4.833,25.586l9.098-25.586h7.392
				l-14.357,40.512h-6.254l-5.117-26.866l-12.651,26.866h-6.681L307.889,573.348z"/>
			<path fill="#D9291C" d="M376.262,573.348h6.396l10.093,40.512h-7.392l-2.133-8.671h-16.063l-4.549,8.671h-8.244L376.262,573.348z
				 M381.379,598.081l-3.27-13.361l-7.107,13.361H381.379z"/>
			<path fill="#D9291C" d="M404.69,573.348h7.107c4.407,0,7.392,0.427,9.24,1.137c2.274,0.995,3.838,2.274,4.975,3.838
				c1.138,1.706,1.706,3.696,1.706,5.971c0,2.843-0.854,5.259-2.559,7.249c-1.706,1.99-4.122,3.412-7.534,4.265l8.813,18.194h-7.818
				l-8.671-17.768h-0.568l-2.417,17.768h-7.676L404.69,573.348z M410.234,589.552c4.122,0,6.823-0.426,8.103-1.279
				c1.279-0.853,1.848-2.132,1.848-3.695c0-0.995-0.284-1.706-0.711-2.416c-0.568-0.711-1.279-1.138-2.132-1.422
				c-0.995-0.284-2.843-0.427-5.686-0.427L410.234,589.552z"/>
			<path fill="#D9291C" d="M436.674,573.348h21.748l-0.995,7.249h-14.214l-1.138,8.387h14.215l-0.995,7.107h-14.356l-1.563,10.804
				h14.356l-0.853,7.106h-22.033L436.674,573.348z"/>
			<path fill="#D9291C" d="M466.383,573.348h7.676l-2.133,15.352h13.931l2.132-15.352h7.676l-5.543,40.512h-7.676l2.559-18.479
				h-13.931l-2.559,18.479h-7.534L466.383,573.348z"/>
			<path fill="#D9291C" d="M523.525,572.353c5.544,0,10.234,1.848,13.788,5.401s5.401,8.103,5.401,13.646
				c0,4.265-1.137,8.244-3.27,11.94c-2.132,3.695-4.975,6.681-8.528,8.671c-3.554,1.989-7.676,2.984-12.225,2.984
				c-5.828,0-10.377-1.705-13.788-5.117c-3.412-3.411-5.117-7.96-5.117-13.504c0-6.396,1.989-11.798,6.112-16.347
				C510.447,574.769,516.275,572.353,523.525,572.353z M523.241,579.46c-2.843,0-5.544,0.711-7.961,2.132
				c-2.416,1.422-4.264,3.412-5.827,6.112c-1.422,2.701-2.274,5.401-2.274,8.245c0,3.269,0.995,6.112,3.127,8.528
				c1.99,2.274,4.975,3.411,8.813,3.411c4.406,0,8.244-1.563,11.229-4.69c2.984-3.127,4.69-6.965,4.69-11.372
				c0-3.695-1.137-6.681-3.27-8.813C529.638,580.597,526.795,579.46,523.241,579.46z"/>
			<path fill="#D9291C" d="M552.097,573.348h7.534l-3.412,25.018c-0.284,2.132-0.426,3.696-0.426,4.69
				c0,1.564,0.426,2.701,1.421,3.554c0.995,0.854,2.274,1.279,4.122,1.279c1.422,0,2.701-0.284,3.838-0.994
				c0.854-0.427,1.422-1.279,1.99-2.417c0.427-1.137,0.995-3.27,1.422-6.681l3.411-24.592h7.676l-3.27,24.165
				c-0.71,4.976-1.563,8.529-2.7,10.661c-1.138,2.132-2.701,3.838-4.833,4.976c-2.133,1.137-4.691,1.705-7.676,1.705
				c-3.98,0-7.25-1.137-9.524-3.27c-2.274-2.132-3.411-5.117-3.411-8.813c0-1.563,0.284-3.98,0.711-7.107L552.097,573.348z"/>
			<path fill="#D9291C" d="M609.098,579.033l-5.544,4.976c-2.274-2.985-4.406-4.407-6.396-4.407c-0.995,0-1.848,0.285-2.417,0.854
				c-0.71,0.568-0.995,1.279-0.995,2.132c0,0.711,0.285,1.563,0.854,2.559c0.568,0.854,2.416,2.985,5.401,6.112
				c1.563,1.706,2.559,2.843,3.127,3.554c1.138,1.563,1.99,3.127,2.559,4.549s0.854,2.843,0.854,4.265
				c0,3.27-1.138,5.97-3.412,8.244s-5.259,3.27-8.955,3.27c-5.544,0-9.95-2.559-13.504-7.818l5.828-4.69
				c2.416,3.554,4.833,5.401,7.676,5.401c1.279,0,2.417-0.427,3.27-1.279s1.279-1.848,1.279-3.127c0-0.995-0.284-1.849-0.853-2.843
				c-0.569-0.995-2.133-2.844-4.691-5.544c-2.7-2.843-4.406-4.976-5.259-6.396c-1.138-1.99-1.706-3.838-1.706-5.828
				c0-2.559,0.853-4.691,2.416-6.681c1.99-2.417,4.833-3.696,8.387-3.696C601.848,572.353,605.828,574.484,609.098,579.033z"/>
			<path fill="#D9291C" d="M617.342,573.348h21.748l-0.995,7.249h-14.214l-1.138,8.387h14.215l-0.995,7.107h-14.356l-1.422,10.804
				h14.356l-0.853,7.106h-22.032L617.342,573.348z"/>
		</g>
	</g>
</g>
</svg>
